<svg xmlns="http://www.w3.org/2000/svg" viewBox="0 0 401 112" role="img" aria-label="Lailu3D">
  <title>Lailu3D</title>
  <defs>
    <linearGradient id="l3dCuTop" x1="0" y1="0" x2="1" y2="1">
      <stop offset="0" stop-color="#F7CCA6"/><stop offset="1" stop-color="#CE8B52"/>
    </linearGradient>
    <linearGradient id="l3dCuFront" x1="0" y1="0" x2=".35" y2="1">
      <stop offset="0" stop-color="#CE8B50"/><stop offset="1" stop-color="#8E5227"/>
    </linearGradient>
    <linearGradient id="l3dCuSide" x1="0" y1="0" x2="1" y2="1">
      <stop offset="0" stop-color="#8C4F22"/><stop offset="1" stop-color="#673717"/>
    </linearGradient>
    <linearGradient id="l3dOrTop" x1="0" y1="0" x2="1" y2="1">
      <stop offset="0" stop-color="#FFBB5C"/><stop offset="1" stop-color="#F7891A"/>
    </linearGradient>
    <linearGradient id="l3dOrFront" x1="0" y1="0" x2=".35" y2="1">
      <stop offset="0" stop-color="#FA9827"/><stop offset="1" stop-color="#DC6E09"/>
    </linearGradient>
    <linearGradient id="l3dOrSide" x1="0" y1="0" x2="1" y2="1">
      <stop offset="0" stop-color="#D26A10"/><stop offset="1" stop-color="#A24B06"/>
    </linearGradient>
  </defs>
  <g transform="translate(0 1) scale(0.53)">
    <path fill="url(#l3dCuFront)" d="M13.4 54 49.77 75 49.77 133 100 162 100 204 13.4 154Z"/>
    <path fill="url(#l3dCuTop)"   d="M13.4 54 49.77 75 79.21 58 42.84 37Z"/>
    <path fill="url(#l3dCuSide)"  d="M49.77 75 49.77 133 79.21 116 79.21 58Z"/>
    <path fill="url(#l3dCuTop)"   d="M49.77 133 100 162 129.44 145 79.21 116Z"/>
    <path fill="url(#l3dCuSide)"  d="M100 162 100 204 129.44 187 129.44 145Z"/>
    <path fill="url(#l3dOrFront)" d="M70.56 21 157.16 71 157.16 145 120.79 124 120.79 74 70.56 45Z"/>
    <path fill="url(#l3dOrTop)"   d="M70.56 21 157.16 71 186.6 54 100 4Z"/>
    <path fill="url(#l3dOrSide)"  d="M157.16 71 157.16 145 186.6 128 186.6 54Z"/>
  </g>
  <g transform="translate(128 28) scale(0.55)">
    <g fill="#F9871C">
      <path d="M0 0h25v77h33v23H0z"/>
      <path fill-rule="evenodd" d="M94 0h26l26 100h-25l-4-17h-20l-4 17H68zm7 61h12l-6-26z"/>
      <path d="M156 0h25v100h-25z"/>
      <path d="M191 0h25v77h33v23h-58z"/>
      <path d="M259 0h25v57c0 13 5 21 12 21s12-8 12-21V0h25v58c0 26-15 42-37 42s-37-16-37-42z"/>
    </g>
    <g fill="#C4825F">
      <path d="M345 0h62v19l-23 22c15 2 25 14 25 30 0 18-14 31-33 31-15 0-28-8-33-21l22-9c3 6 6 9 11 9 6 0 10-4 10-10s-4-10-11-10h-9V52l19-19h-40z"/>
      <path fill-rule="evenodd" d="M419 0h34c26 0 42 20 42 50s-16 50-42 50h-34zm25 22v56h9c12 0 17-11 17-28s-5-28-17-28z"/>
    </g>
  </g>
</svg>
